<svg xmlns="http://www.w3.org/2000/svg" width="23" height="20.389" viewBox="0 0 23 20.389">
  <g id="aussie-rules" transform="translate(-0.321 -1.215)">
    <path id="Path_984" data-name="Path 984" d="M20.29,2.237c-2.8.029-6.68,1.81-10.252,4.672C5.844,10.266,2.859,14.46,2.28,18.233l-.021.143.285.044.023-.143c.566-3.687,3.51-7.824,7.653-11.143,3.733-2.99,7.8-4.782,10.537-4.6a5.76,5.76,0,0,1,1.252,1.22c1.661,2.2,1.539,5.364,0,8.453a25.364,25.364,0,0,1-5.635,4.042c-4.626,2.492-9.532,3.59-13.139,2.719l-.109-.028-.14-.036-.071.281.14.036c3.7.941,8.726-.169,13.456-2.717a26.567,26.567,0,0,0,5.068-3.5,17.642,17.642,0,0,1-4.644,5.134C11.323,22.372,4.5,22.783,1.7,19.062S1.172,8.9,6.779,4.673C11.451,1.155,16.96.282,20.292,2.237Z" transform="translate(0.111 0)" fill="#df0411" fill-rule="evenodd"/>
    <circle id="Ellipse_31" data-name="Ellipse 31" cx="1.622" cy="1.622" r="1.622" transform="matrix(0.848, 0.53, -0.53, 0.848, 2.04, 16.668)" fill="#fff"/>
    <path id="Path_985" data-name="Path 985" d="M10.951,2.415c.74-.832,1.9-.3,3.471,1.374l.487.532-.519.47-.234-.26c-1.437-1.59-2.329-2.049-2.68-1.651-.151.169-.149.394.011.767l.127.263.123.229c.6,1.084.7,1.509.068,1.947-.47.328-1.014.232-1.852-.17l-.362-.183-.616-.324c-.589-.3-.829-.367-.9-.307-.055.049.011.315.318,1.022l.217.5c.461,1.075.543,1.723,0,2.185-.469.4-1.072.349-2,0L5.2,8.236c-.4-.151-.577-.182-.628-.138-.151.13.3.947,1.505,2.292l.49.534-.513.475-.238-.256c-1.737-1.877-2.372-3-1.7-3.577.386-.331.665-.279,1.874.23l.615.26c.837.339,1.322.409,1.548.217.182-.154.161-.5-.084-1.126l-.217-.513-.213-.487c-.4-.949-.417-1.241-.016-1.58s.693-.284,1.642.2l.751.394c.751.388,1.181.495,1.392.349.149-.1.128-.264-.172-.831l-.243-.451-.05-.1c-.352-.707-.406-1.244.011-1.715Z" transform="translate(2.199 0.506)" fill="#fff"/>
  </g>
</svg>
