<svg xmlns="http://www.w3.org/2000/svg" width="23" height="22.995" viewBox="0 0 23 22.995">
  <g id="baseball" transform="translate(-1 -1.002)">
    <path id="Path_1178" data-name="Path 1178" d="M19.588,18.718a8.147,8.147,0,0,0-1.934-7.193C15.767,9.5,10.019,4.954,1.771,11.9c-.255.172-.513.349-.771.534a11.5,11.5,0,1,1,15.082,11A9.306,9.306,0,0,0,19.588,18.718ZM12.429,24A11.5,11.5,0,0,1,1.064,13.709l.242-.223A13.31,13.31,0,0,1,9.923,9.644a8.988,8.988,0,0,1,6.852,2.785A6.993,6.993,0,0,1,18.5,18.67c-.559,2.418-2.477,4.306-5.643,5.187l-.437.12Z" transform="translate(0 0)" fill="#fff"/>
    <path id="Path_1179" data-name="Path 1179" d="M1.324,9.7C5.966,5.318,11.918,4.7,15.96,7.856c4.725,3.7,3.092,10.717-2.893,12.232l-.331.076-.375.081a11.435,11.435,0,0,1-2.6-.322,26.194,26.194,0,0,0,2.813-.513c5.622-1.2,7.2-7.591,2.908-10.949-3.627-2.829-8.977-2.339-13.3,1.5l-.349.318-.658.672a7.138,7.138,0,0,1-.147-1l.29-.26Z" transform="translate(0.026 3.75)" fill="#f33a40"/>
    <path id="Path_1180" data-name="Path 1180" d="M1.039,11.316c5.4-4.058,10.494-5.52,15.5-1.849,5.12,4.087,4.716,9.376,1.794,12.755a9.359,9.359,0,0,1-2.261,1.008l.513-.416c3.581-2.9,4.743-8.488-.513-12.738C11.549,6.762,6.714,8.092,1.7,11.755l-.7.488C1.005,11.947,1.014,11.648,1.039,11.316Zm22.882-.586A9.81,9.81,0,0,0,15.7,1.255S22.53,3.93,23.921,10.73Z" transform="translate(0 0.191)" fill="#f33a40"/>
  </g>
</svg>
