<svg xmlns="http://www.w3.org/2000/svg" width="15.169" height="23" viewBox="0 0 15.169 23">
  <g id="mma" transform="translate(-2.966 -0.624)">
    <path id="Path_1548" data-name="Path 1548" d="M4.735,12.19c.97,0,1.44-1.433,1.44-2.3s-.47-.851-1.44-.851S3.124,10.128,3.124,11s.641,1.191,1.611,1.191ZM6.74,4C7.51,4,7.886,2.65,7.886,1.581S7.1.734,6.28.846s-.821.989-.821,1.9A1.116,1.116,0,0,0,6.74,4Zm3.4-.122c.771,0,1.146-1.346,1.146-2.417S10.505.611,9.682.724s-.82.987-.82,1.9a1.117,1.117,0,0,0,1.28,1.248Zm3.153.211c.773,0,1.147-1.346,1.147-2.415S13.658.821,12.837.935s-.821.989-.821,1.9A1.116,1.116,0,0,0,13.3,4.085Zm3.223.754c.771,0,1.146-1.346,1.146-2.415s-.783-.846-1.606-.734-.82.989-.82,1.9a1.116,1.116,0,0,0,1.28,1.248Z" transform="translate(0.106 0)" fill="#e6a983" fill-rule="evenodd"/>
    <path id="Path_1549" data-name="Path 1549" d="M8.8,1.165a6.174,6.174,0,0,1,2.721,0c.284.1-.134,3.342.309,3.556.2.1-.1-3.6.258-3.554h.017a8.4,8.4,0,0,1,2.613.381,6.114,6.114,0,0,1,0,1.392l-.025.54a4.229,4.229,0,0,0,.028,1.241c.194.144.254-2.877.686-2.882.281,0,1.706-.427,2.519.607.174.224.172.925-.008,2.108l.023.365a43.868,43.868,0,0,1-.017,8.49c-.1,1.049-1.114,2.4-.987,3.887q-.146,1.014-1.529.893l-.229,0c-.806.013-1.658.018-2.562.02h-.406c-1.251,0-2.6-.012-4.085-.023q-1.842.1-2.472-2.564h0a6.9,6.9,0,0,0,3.235.463c-2.564-.03-3.342-.895-3.459-.943q-.263-.373-.555-.724l-.06-.074-.261-.318A6.558,6.558,0,0,1,2.966,11l.069-.07A7.044,7.044,0,0,1,4.818,9.5c.05-.022.274.318.525.716l.278.442c.253.4.48.746.534.723A8.041,8.041,0,0,1,5.6,5.893a14.351,14.351,0,0,0-.141-2.044l-.028-.283c-.1-1.009-.162-1.97,0-2.019l.059-.018a5.447,5.447,0,0,1,2.634-.363c.159.027.2.838.271,1.661l.008.1.013.152c.067.733.162,1.41.385,1.474.151.043-.214-3.417,0-3.385Z" transform="translate(0 0.239)" fill-rule="evenodd"/>
    <path id="Path_1550" data-name="Path 1550" d="M16.5,5.065a5.612,5.612,0,0,0-.043-2.31,2.08,2.08,0,0,0-2-.428c-.564.326-.156,2.588-.774,2.588-.81-.037-.3-3.041-.408-3.094a6.681,6.681,0,0,0-2.007-.284c-.281-.03.42,3.379-.493,3.379-.97,0-.351-3.308-.574-3.384a5.184,5.184,0,0,0-2.158,0c-.167-.025.3,3.191-.212,3.191-.97,0-.791-3.145-1.04-3.186a4.676,4.676,0,0,0-2.134.284c-.256.074.266,3.248.243,3.763a10.525,10.525,0,0,0,.726,5.561c.47,1.648,10.5,2.166,10.732.427A29.852,29.852,0,0,0,16.5,5.065Z" transform="translate(1.087 0.517)" fill="#656565" fill-rule="evenodd" opacity="0.88"/>
    <path id="Path_1551" data-name="Path 1551" d="M4.492,6.119l.657-.151a6.275,6.275,0,0,0,.721,2.1C4.843,8.611,4.114,7.885,3.445,6.9A3.347,3.347,0,0,1,4.492,6.119Z" transform="translate(0.322 3.595)" fill="#656565" fill-rule="evenodd"/>
    <path id="Path_1552" data-name="Path 1552" d="M4.071,6.117l.662-.146a6.24,6.24,0,0,0,.716,2.1c-.416-.059-1.214-1.4-1.378-1.954Z" transform="translate(0.743 3.597)" fill-rule="evenodd" opacity="0.563"/>
    <path id="Path_1553" data-name="Path 1553" d="M6.777,11.984a56.754,56.754,0,0,0,9.526-.219l.112,3.727a34.86,34.86,0,0,1-10.425.154c-2-.452-1.853-3.661.786-3.663Z" transform="translate(1.117 7.494)" fill="#720900" fill-rule="evenodd"/>
    <path id="Path_1554" data-name="Path 1554" d="M16.4,11.835a55.485,55.485,0,0,1-9.079.234l-.11,0-.335-.013c-2.639,0-2.783,3.21-.786,3.661a34.814,34.814,0,0,0,10.223-.122l.2-.032c.154-.042.263.134.054.159a35.062,35.062,0,0,1-10.422.167l-.117-.017-.043-.008A1.908,1.908,0,0,1,4.5,13.7a2.173,2.173,0,0,1,2.33-1.81h.047l.124.005A55.725,55.725,0,0,0,16.1,11.7q.157-.024.316-.038c.124-.022.273.124-.015.171Z" transform="translate(1.019 7.425)"/>
  </g>
</svg>
