<svg xmlns="http://www.w3.org/2000/svg" width="20.38" height="23" viewBox="0 0 20.38 23">
  <g id="motorsport" transform="translate(-1.297 -0.5)">
    <path id="Path_1555" data-name="Path 1555" d="M1.742,8.614A8.985,8.985,0,0,1,3.2,4.79C3.6,3.4,5.1,2.848,6.092,1.906,8.8.116,13.774.153,14.67,1.354a12.505,12.505,0,0,1,5.047,2.211l.054.373.34.084a10.15,10.15,0,0,1,1.281,4.957,4.889,4.889,0,0,0-.956,1.916,18.983,18.983,0,0,1-.251,2.924,20.077,20.077,0,0,1-11.643,9.65c-.453.038-1.948.23-2.221-1.13-.821-.953-1.911-2.047-2.53-2.891l-.38-.838c5.195,1.677,13.437-3.743,14.656-6.8,2.629-5.512.748-7.36-2.146-5.512A21.544,21.544,0,0,1,1.74,8.614Z" transform="translate(0.285 0)" fill="#eef3ef" fill-rule="evenodd"/>
    <path id="Path_1556" data-name="Path 1556" d="M14.639,11.779c-.529-.641-1.309,1.937-1.728,1.392a5.2,5.2,0,0,1-.8-1.786,16.642,16.642,0,0,1-1.523,1.8,18.29,18.29,0,0,0,.866,3.927A22.718,22.718,0,0,0,14.5,12.865l.025-.151c.053-.353.115-.858.117-.935ZM12.786,4.772A18.157,18.157,0,0,1,13.959,2.56l-.074-.048c-.164-.108-.476-.324-.826-.526a14.436,14.436,0,0,0-1.507,2.744,1.835,1.835,0,0,1,1.232.041Z" transform="translate(5.973 0.956)" fill="#e7061a" fill-rule="evenodd"/>
    <path id="Path_1557" data-name="Path 1557" d="M7.454,8.779l.031-.163A13.712,13.712,0,0,1,9,4.507a7.762,7.762,0,0,1,1.917-1.96c-.159-.21-.115-.288.016-.452l.105-.09c.739-.652.818-.953,2.326-.549l.12-.016a3.275,3.275,0,0,0,.932-.215l-.036-.039A1.774,1.774,0,0,0,13.9.857a10.617,10.617,0,0,0-7.5,1.158C5.406,2.956,3.9,3.505,3.5,4.9A8.922,8.922,0,0,0,2.059,8.646a21.172,21.172,0,0,0,5.4.131ZM2.784,17.6l.805,1.771c.618.846,1.709,1.942,2.53,2.893.273,1.36,1.768,1.168,2.221,1.13q.7-.244,1.347-.509l-.13-.345a7.369,7.369,0,0,0-1.139-2.223c.089-.353.621-1.549.872-2.192l-.161.054a11.975,11.975,0,0,1-3.305.46A3.971,3.971,0,0,1,2.784,17.6Z" transform="translate(0.49 0.07)" fill="#e10514" fill-rule="evenodd"/>
    <path id="Path_1558" data-name="Path 1558" d="M17.522,9.184C16.252,12.042,7.159,18.026,3,14.457L1.768,8.245a.889.889,0,0,1-.284-1.339c1.5,1.042,9.179.853,14.4-1.991,2.76-1.684,3.432-.187,1.641,4.27ZM16.293,5.515a1.229,1.229,0,0,0,.488,1.63A1.231,1.231,0,0,0,18.2,6.21a1.229,1.229,0,0,0-.488-1.63A1.231,1.231,0,0,0,16.293,5.515Z" transform="translate(0 2.406)"/>
    <path id="Path_1559" data-name="Path 1559" d="M10.972,6.571a.914.914,0,0,0,1.058-.695.916.916,0,0,0-.363-1.214c-.393-.143-.866.169-1.058.7a.916.916,0,0,0,.361,1.212Z" transform="translate(5.934 2.653)" fill="#eef3ef" fill-rule="evenodd"/>
  </g>
</svg>
