<svg xmlns="http://www.w3.org/2000/svg" width="23" height="22.805" viewBox="0 0 23 22.805">
  <g id="waterpolo" transform="translate(-2.259 -2.381)">
    <path id="Path_1767" data-name="Path 1767" d="M5.784,21.805l.062.044c1.026.724,2.279,1.223,3.264.55a16.2,16.2,0,0,0,6.449,1.974l.078.007-.231.606c-4.467.531-7.54-.962-9.622-3.182ZM19.97,18.593c-.991,1.711-3.131,4.139-4.13,5.52l-.058-.005A20.069,20.069,0,0,1,9.036,22.1c-1.1-1.844-.637-3.686.471-5.56,2.222.943,7.117-2.147,10.465,2.057ZM24.924,15.5a11.609,11.609,0,0,1-4.141,7.263c-.3.265,2.4-4.65,2.781-5.888.732-.318.86-.639,1.36-1.375ZM4.308,12.126A6.012,6.012,0,0,0,9.274,16.4c-1.688,2.326-1.686,4.007-.46,5.832-2.179.846-4.153-1.476-5.078-3.476-1.163-2.514-.873-5.767.572-6.634ZM21.53,6.093c2.879,4.688,1.926,8.459-.836,8.861-2.825-4.144-5.6-4.326-6.654-4.477l.083-.113A10.632,10.632,0,0,0,16.557,4.95,6.57,6.57,0,0,1,21.53,6.092ZM6.009,5.288C4.352,6.836,3.473,8.552,3.594,10.265a2.256,2.256,0,0,0-.955,1.026,8.8,8.8,0,0,1,3.37-6ZM11.19,3.252l.247.047a13.608,13.608,0,0,1,4.788,1.664,10.833,10.833,0,0,1-2.654,5.455C10.926,9.5,6.556,11.967,5.7,8.085,7.405,6.431,8.72,4.5,11.19,3.252ZM21.335,5.691a6.323,6.323,0,0,0-5-1.014,16.34,16.34,0,0,0-4.795-1.645C14.553,1.636,18.4,2.467,21.335,5.691Z" transform="translate(-0.044 0)" fill="#f8cf3a"/>
    <path id="Path_1768" data-name="Path 1768" d="M7.84,23.415A11.584,11.584,0,1,0,20.8,4.207c2.031,2.649,3.39,8.6-.188,13.9S11.2,24.912,7.84,23.415Z" transform="translate(-0.644 -0.211)" fill-rule="evenodd" opacity="0.25"/>
    <path id="Path_1769" data-name="Path 1769" d="M23.331,16.917c-.838,2.028-2.388,4.32-3.088,6.276-.733.879-4.331,2.043-4.65,1.659a46.446,46.446,0,0,0,5.983-7.829l.056.018a2.062,2.062,0,0,0,1.7-.124ZM5.506,8.388c.966,3.761,4.048,1.832,7.97,2.344a10.12,10.12,0,0,1,7.816,6.076l-1.2,1.568c-3-3.985-6.065-2.258-9.426-2.117-2.755.116-6.006-1.456-6.571-6.022a3.007,3.007,0,0,1,1.412-1.85ZM3.951,10.316a5.662,5.662,0,0,0,.313,1.428c-1.146.836-1.967,2.073-1.383,5.407Q1.232,11.809,3.951,10.316ZM21.467,5.729c5.118,4.717,4.321,11.882.165,10.993l-.725-1.411c3.251-.445,3.915-4.42.561-9.582ZM11.794,2.714c-2.666.925-4.747,3.358-6.362,5.3a4.073,4.073,0,0,0-1.586,2.1c-.1-1.816.893-3.391,2.767-5.152a7.618,7.618,0,0,1,5.181-2.245Z" transform="translate(0 -0.038)" fill="#283a90"/>
  </g>
</svg>
